<svg xmlns="http://www.w3.org/2000/svg" xmlns:xlink="http://www.w3.org/1999/xlink" width="351" zoomAndPan="magnify" viewBox="0 0 263.25 168.75" height="225" preserveAspectRatio="xMidYMid meet" version="1.0"><defs><g/></defs><g fill="#efefed" fill-opacity="1"><g transform="translate(8.068573, 108.387467)"><g><path d="M 5.15625 0 L 5.15625 -64.390625 L 34.765625 -64.390625 C 38.035156 -64.390625 40.835938 -63.96875 43.171875 -63.125 C 45.515625 -62.289062 47.4375 -61.1875 48.9375 -59.8125 C 50.4375 -58.445312 51.625 -56.9375 52.5 -55.28125 C 53.382812 -53.625 54 -51.988281 54.34375 -50.375 C 54.6875 -48.769531 54.859375 -47.328125 54.859375 -46.046875 C 54.859375 -44.753906 54.6875 -43.300781 54.34375 -41.6875 C 54 -40.082031 53.382812 -38.472656 52.5 -36.859375 C 51.625 -35.253906 50.4375 -33.765625 48.9375 -32.390625 C 47.4375 -31.015625 45.523438 -29.894531 43.203125 -29.03125 C 40.890625 -28.175781 38.078125 -27.726562 34.765625 -27.6875 L 32.90625 -27.6875 C 31.957031 -27.6875 31.523438 -27.535156 31.609375 -27.234375 C 31.703125 -26.929688 32.132812 -26.484375 32.90625 -25.890625 C 34.707031 -24.472656 36.539062 -22.582031 38.40625 -20.21875 C 40.269531 -17.851562 42.382812 -15.082031 44.75 -11.90625 C 46.082031 -10.144531 47.488281 -8.46875 48.96875 -6.875 C 50.445312 -5.289062 51.863281 -3.910156 53.21875 -2.734375 C 54.570312 -1.554688 55.71875 -0.644531 56.65625 0 L 49.390625 0 C 47.890625 -0.90625 46.34375 -2.203125 44.75 -3.890625 C 43.164062 -5.585938 41.578125 -7.488281 39.984375 -9.59375 C 38.398438 -11.695312 36.820312 -13.800781 35.25 -15.90625 C 33.6875 -18.007812 32.148438 -19.953125 30.640625 -21.734375 C 29.140625 -23.515625 27.679688 -24.953125 26.265625 -26.046875 C 24.847656 -27.140625 23.5 -27.6875 22.21875 -27.6875 L 16.484375 -27.6875 L 16.484375 -28.96875 L 29.109375 -28.96875 C 35.546875 -28.96875 40.425781 -30.503906 43.75 -33.578125 C 47.082031 -36.648438 48.75 -40.804688 48.75 -46.046875 C 48.75 -51.273438 47.082031 -55.425781 43.75 -58.5 C 40.425781 -61.570312 35.546875 -63.109375 29.109375 -63.109375 L 13.65625 -63.109375 C 12.488281 -63.109375 11.625 -62.867188 11.0625 -62.390625 C 10.507812 -61.921875 10.234375 -60.804688 10.234375 -59.046875 C 10.234375 -58.785156 10.234375 -57.765625 10.234375 -55.984375 C 10.234375 -54.203125 10.234375 -51.882812 10.234375 -49.03125 C 10.234375 -46.175781 10.234375 -43.007812 10.234375 -39.53125 C 10.234375 -36.050781 10.242188 -32.476562 10.265625 -28.8125 C 10.285156 -25.144531 10.296875 -21.59375 10.296875 -18.15625 C 10.296875 -14.71875 10.296875 -11.632812 10.296875 -8.90625 C 10.296875 -6.1875 10.296875 -4.019531 10.296875 -2.40625 C 10.296875 -0.800781 10.296875 0 10.296875 0 Z M 5.15625 0 "/></g></g></g><g fill="#efefed" fill-opacity="1"><g transform="translate(66.020932, 108.387467)"><g><path d="M 25.046875 1.28125 C 20.710938 1.28125 16.898438 0.304688 13.609375 -1.640625 C 10.328125 -3.597656 7.773438 -6.347656 5.953125 -9.890625 C 4.128906 -13.429688 3.21875 -17.5625 3.21875 -22.28125 C 3.21875 -27 4.128906 -31.128906 5.953125 -34.671875 C 7.773438 -38.210938 10.328125 -40.957031 13.609375 -42.90625 C 16.898438 -44.863281 20.710938 -45.84375 25.046875 -45.84375 C 29.421875 -45.84375 33.238281 -44.863281 36.5 -42.90625 C 39.769531 -40.957031 42.316406 -38.210938 44.140625 -34.671875 C 45.960938 -31.128906 46.875 -27 46.875 -22.28125 C 46.875 -17.5625 45.960938 -13.429688 44.140625 -9.890625 C 42.316406 -6.347656 39.769531 -3.597656 36.5 -1.640625 C 33.238281 0.304688 29.421875 1.28125 25.046875 1.28125 Z M 8.5 -22.28125 C 8.5 -17.8125 9.1875 -13.898438 10.5625 -10.546875 C 11.9375 -7.203125 13.867188 -4.609375 16.359375 -2.765625 C 18.847656 -0.921875 21.742188 0 25.046875 0 C 28.347656 0 31.242188 -0.921875 33.734375 -2.765625 C 36.222656 -4.609375 38.15625 -7.203125 39.53125 -10.546875 C 40.90625 -13.898438 41.59375 -17.8125 41.59375 -22.28125 C 41.59375 -26.738281 40.90625 -30.640625 39.53125 -33.984375 C 38.15625 -37.335938 36.222656 -39.9375 33.734375 -41.78125 C 31.242188 -43.632812 28.347656 -44.5625 25.046875 -44.5625 C 21.742188 -44.5625 18.847656 -43.632812 16.359375 -41.78125 C 13.867188 -39.9375 11.9375 -37.335938 10.5625 -33.984375 C 9.1875 -30.640625 8.5 -26.738281 8.5 -22.28125 Z M 8.5 -22.28125 "/></g></g></g><g fill="#efefed" fill-opacity="1"><g transform="translate(116.117521, 108.387467)"><g><path d="M 4.5 0 L 4.5 -64.390625 L 9.65625 -64.390625 L 9.65625 -39.796875 C 9.65625 -38.722656 9.847656 -38.1875 10.234375 -38.1875 C 10.492188 -38.1875 10.96875 -38.484375 11.65625 -39.078125 C 13.96875 -41.316406 16.429688 -43.003906 19.046875 -44.140625 C 21.671875 -45.273438 24.660156 -45.84375 28.015625 -45.84375 C 31.273438 -45.84375 34.140625 -45.207031 36.609375 -43.9375 C 39.078125 -42.675781 41.007812 -40.925781 42.40625 -38.6875 C 43.800781 -36.457031 44.5 -33.882812 44.5 -30.96875 L 44.5 0 L 39.34375 0 L 39.34375 -30.84375 C 39.34375 -33.894531 38.757812 -36.425781 37.59375 -38.4375 C 36.4375 -40.457031 34.914062 -41.984375 33.03125 -43.015625 C 31.144531 -44.046875 29.128906 -44.5625 26.984375 -44.5625 C 24.835938 -44.5625 22.734375 -44.148438 20.671875 -43.328125 C 18.609375 -42.515625 16.75 -41.410156 15.09375 -40.015625 C 13.445312 -38.617188 12.128906 -37.039062 11.140625 -35.28125 C 10.148438 -33.519531 9.65625 -31.695312 9.65625 -29.8125 L 9.65625 0 Z M 4.5 0 "/></g></g></g><g fill="#efefed" fill-opacity="1"><g transform="translate(165.119462, 108.387467)"><g><path d="M 9.40625 0 L 4.25 0 L 4.25 -44.5625 L 9.40625 -44.5625 Z M 0.84375 -54.796875 C 0.625 -54.878906 0.515625 -54.972656 0.515625 -55.078125 C 0.515625 -55.191406 0.625 -55.269531 0.84375 -55.3125 C 2.039062 -55.695312 2.984375 -56.09375 3.671875 -56.5 C 4.359375 -56.90625 4.914062 -57.492188 5.34375 -58.265625 C 5.769531 -59.046875 6.175781 -60.125 6.5625 -61.5 C 6.65625 -61.707031 6.785156 -61.8125 6.953125 -61.8125 C 7.128906 -61.8125 7.238281 -61.707031 7.28125 -61.5 C 7.664062 -60.125 8.070312 -59.046875 8.5 -58.265625 C 8.925781 -57.492188 9.484375 -56.894531 10.171875 -56.46875 C 10.859375 -56.039062 11.800781 -55.65625 13 -55.3125 C 13.21875 -55.269531 13.328125 -55.191406 13.328125 -55.078125 C 13.328125 -54.972656 13.21875 -54.878906 13 -54.796875 C 11.84375 -54.410156 10.890625 -54.015625 10.140625 -53.609375 C 9.390625 -53.203125 8.800781 -52.617188 8.375 -51.859375 C 7.945312 -51.109375 7.582031 -50.003906 7.28125 -48.546875 C 7.238281 -48.378906 7.117188 -48.296875 6.921875 -48.296875 C 6.722656 -48.296875 6.601562 -48.378906 6.5625 -48.546875 C 6.175781 -50.003906 5.769531 -51.109375 5.34375 -51.859375 C 4.914062 -52.617188 4.359375 -53.203125 3.671875 -53.609375 C 2.984375 -54.015625 2.039062 -54.410156 0.84375 -54.796875 Z M 0.84375 -54.796875 "/></g></g></g><g fill="#efefed" fill-opacity="1"><g transform="translate(178.963644, 108.387467)"><g><path d="M 1.28125 -43.265625 L 1.28125 -44.5625 C 3.382812 -44.5625 5.113281 -45.03125 6.46875 -45.96875 C 7.820312 -46.914062 8.84375 -48.066406 9.53125 -49.421875 C 10.21875 -50.773438 10.5625 -52.03125 10.5625 -53.1875 C 10.5625 -54.476562 10.21875 -55.59375 9.53125 -56.53125 C 8.84375 -57.476562 8.003906 -57.953125 7.015625 -57.953125 C 6.242188 -57.953125 5.738281 -57.78125 5.5 -57.4375 C 5.269531 -57.09375 5.109375 -56.679688 5.015625 -56.203125 C 4.929688 -55.734375 4.789062 -55.328125 4.59375 -54.984375 C 4.40625 -54.640625 3.988281 -54.46875 3.34375 -54.46875 C 2.613281 -54.46875 2.085938 -54.703125 1.765625 -55.171875 C 1.441406 -55.648438 1.28125 -56.101562 1.28125 -56.53125 C 1.28125 -57.695312 1.753906 -58.535156 2.703125 -59.046875 C 3.648438 -59.554688 4.550781 -59.8125 5.40625 -59.8125 C 6.78125 -59.8125 7.945312 -59.476562 8.90625 -58.8125 C 9.875 -58.15625 10.613281 -57.332031 11.125 -56.34375 C 11.644531 -55.351562 11.90625 -54.363281 11.90625 -53.375 C 11.90625 -52.132812 11.660156 -50.929688 11.171875 -49.765625 C 10.679688 -48.609375 9.875 -47.535156 8.75 -46.546875 C 8.195312 -46.078125 7.972656 -45.691406 8.078125 -45.390625 C 8.179688 -45.085938 8.445312 -44.875 8.875 -44.75 C 9.3125 -44.625 9.722656 -44.5625 10.109375 -44.5625 L 15.203125 -44.5625 L 15.203125 -43.265625 C 13.648438 -43.265625 12.5625 -43.070312 11.9375 -42.6875 C 11.320312 -42.300781 10.957031 -41.734375 10.84375 -40.984375 C 10.738281 -40.234375 10.6875 -39.257812 10.6875 -38.0625 L 10.6875 0 L 5.53125 0 L 5.53125 -34.3125 C 5.53125 -36.207031 5.640625 -37.691406 5.859375 -38.765625 C 6.078125 -39.835938 6.570312 -40.757812 7.34375 -41.53125 C 8.070312 -42.257812 8.398438 -42.726562 8.328125 -42.9375 C 8.265625 -43.15625 7.765625 -43.265625 6.828125 -43.265625 Z M 1.28125 -43.265625 "/></g></g></g><g fill="#efefed" fill-opacity="1"><g transform="translate(158.205659, 18.032578)"><g><path d="M 18.40625 -11.703125 L 14.4375 0.03125 L 12.6875 0.03125 L 9.484375 -9.375 L 6.265625 0.015625 L 4.46875 0.015625 L 0.5625 -11.75 L 2.296875 -11.75 L 5.4375 -2.1875 L 8.78125 -11.734375 L 10.328125 -11.734375 L 13.53125 -2.125 L 16.8125 -11.71875 Z M 18.40625 -11.703125 "/></g></g></g><g fill="#efefed" fill-opacity="1"><g transform="translate(182.743041, 19.578947)"><g><path d="M 10.234375 1.796875 L 9.78125 3.1875 L 1.671875 0.546875 L 5.3125 -10.625 L 13.203125 -8.046875 L 12.75 -6.65625 L 6.453125 -8.71875 L 5.34375 -5.296875 L 10.953125 -3.453125 L 10.5 -2.078125 L 4.890625 -3.921875 L 3.71875 -0.328125 Z M 10.234375 1.796875 "/></g></g></g><g fill="#efefed" fill-opacity="1"><g transform="translate(198.86202, 25.582235)"><g><path d="M 11.421875 0.265625 C 11.898438 0.796875 12.160156 1.378906 12.203125 2.015625 C 12.242188 2.648438 12.054688 3.285156 11.640625 3.921875 C 11.078125 4.765625 10.328125 5.203125 9.390625 5.234375 C 8.453125 5.273438 7.367188 4.890625 6.140625 4.078125 L 1.46875 0.96875 L 7.953125 -8.828125 L 12.34375 -5.90625 C 13.46875 -5.164062 14.1875 -4.367188 14.5 -3.515625 C 14.820312 -2.660156 14.71875 -1.835938 14.1875 -1.046875 C 13.851562 -0.535156 13.441406 -0.175781 12.953125 0.03125 C 12.460938 0.25 11.953125 0.328125 11.421875 0.265625 Z M 8.59375 -6.75 L 6.53125 -3.625 L 9.421875 -1.71875 C 10.140625 -1.238281 10.78125 -1.003906 11.34375 -1.015625 C 11.90625 -1.023438 12.351562 -1.285156 12.6875 -1.796875 C 13.03125 -2.304688 13.09375 -2.820312 12.875 -3.34375 C 12.664062 -3.863281 12.203125 -4.363281 11.484375 -4.84375 Z M 6.84375 2.90625 C 7.632812 3.425781 8.316406 3.6875 8.890625 3.6875 C 9.460938 3.695312 9.9375 3.421875 10.3125 2.859375 C 11.039062 1.765625 10.609375 0.691406 9.015625 -0.359375 L 5.78125 -2.5 L 3.609375 0.765625 Z M 6.84375 2.90625 "/></g></g></g><g fill="#efefed" fill-opacity="1"><g transform="translate(213.911143, 36.927576)"><g/></g></g><g fill="#efefed" fill-opacity="1"><g transform="translate(221.169229, 44.777243)"><g><path d="M 11.015625 -4.4375 L 13.53125 -0.15625 C 14.15625 0.90625 14.5 1.972656 14.5625 3.046875 C 14.632812 4.128906 14.421875 5.125 13.921875 6.03125 C 13.429688 6.945312 12.6875 7.695312 11.6875 8.28125 C 10.695312 8.863281 9.679688 9.148438 8.640625 9.140625 C 7.609375 9.140625 6.632812 8.847656 5.71875 8.265625 C 4.800781 7.679688 4.03125 6.859375 3.40625 5.796875 L 0.890625 1.515625 Z M 4.625 4.953125 C 5.101562 5.773438 5.679688 6.40625 6.359375 6.84375 C 7.035156 7.289062 7.765625 7.507812 8.546875 7.5 C 9.328125 7.5 10.09375 7.273438 10.84375 6.828125 C 11.601562 6.390625 12.164062 5.832031 12.53125 5.15625 C 12.90625 4.488281 13.066406 3.75 13.015625 2.9375 C 12.972656 2.125 12.710938 1.304688 12.234375 0.484375 L 10.625 -2.25 L 3.015625 2.21875 Z M 4.625 4.953125 "/></g></g></g><g fill="#efefed" fill-opacity="1"><g transform="translate(230.307598, 62.292006)"><g><path d="M 4 9.59375 L 2.578125 9.96875 L 0.4375 1.703125 L 11.8125 -1.25 L 13.90625 6.78125 L 12.5 7.15625 L 10.828125 0.75 L 7.328125 1.65625 L 8.8125 7.375 L 7.421875 7.734375 L 5.9375 2.015625 L 2.28125 2.953125 Z M 4 9.59375 "/></g></g></g><g fill="#efefed" fill-opacity="1"><g transform="translate(233.901444, 79.133096)"><g><path d="M 11.609375 12.09375 L -0.078125 6.8125 L -0.0625 5.15625 L 11.75 0.109375 L 11.734375 1.921875 L 2.03125 6.046875 L 11.640625 10.421875 Z M 11.609375 12.09375 "/></g></g></g><g fill="#efefed" fill-opacity="1"><g transform="translate(232.864821, 97.019803)"><g><path d="M -1.390625 10.3125 L -2.796875 9.90625 L -0.484375 1.703125 L 10.828125 4.90625 L 8.578125 12.890625 L 7.171875 12.484375 L 8.96875 6.109375 L 5.5 5.140625 L 3.890625 10.8125 L 2.5 10.421875 L 4.109375 4.75 L 0.46875 3.71875 Z M -1.390625 10.3125 "/></g></g></g><g fill="#efefed" fill-opacity="1"><g transform="translate(227.360174, 113.394137)"><g><path d="M 9.265625 7.4375 L 8.421875 8.875 L -0.46875 3.703125 L -3.671875 9.21875 L -4.9375 8.484375 L -0.890625 1.53125 Z M 9.265625 7.4375 "/></g></g></g><g fill="#efefed" fill-opacity="1"><g transform="translate(218.895464, 126.900034)"><g><path d="M -5.15625 4.84375 C -4.3125 4.019531 -3.363281 3.457031 -2.3125 3.15625 C -1.269531 2.863281 -0.234375 2.859375 0.796875 3.140625 C 1.828125 3.421875 2.738281 3.960938 3.53125 4.765625 C 4.320312 5.578125 4.84375 6.5 5.09375 7.53125 C 5.34375 8.570312 5.304688 9.613281 4.984375 10.65625 C 4.671875 11.695312 4.09375 12.628906 3.25 13.453125 C 2.414062 14.273438 1.472656 14.832031 0.421875 15.125 C -0.617188 15.414062 -1.648438 15.421875 -2.671875 15.140625 C -3.691406 14.859375 -4.601562 14.304688 -5.40625 13.484375 C -6.195312 12.671875 -6.71875 11.75 -6.96875 10.71875 C -7.226562 9.695312 -7.195312 8.664062 -6.875 7.625 C -6.5625 6.59375 -5.988281 5.664062 -5.15625 4.84375 Z M -4.109375 5.90625 C -4.722656 6.507812 -5.140625 7.191406 -5.359375 7.953125 C -5.585938 8.722656 -5.597656 9.492188 -5.390625 10.265625 C -5.191406 11.035156 -4.796875 11.722656 -4.203125 12.328125 C -3.609375 12.941406 -2.929688 13.351562 -2.171875 13.5625 C -1.410156 13.78125 -0.644531 13.785156 0.125 13.578125 C 0.894531 13.378906 1.585938 12.976562 2.203125 12.375 C 2.816406 11.769531 3.238281 11.082031 3.46875 10.3125 C 3.695312 9.539062 3.710938 8.769531 3.515625 8 C 3.316406 7.238281 2.921875 6.550781 2.328125 5.9375 C 1.734375 5.332031 1.050781 4.921875 0.28125 4.703125 C -0.476562 4.484375 -1.242188 4.476562 -2.015625 4.6875 C -2.796875 4.894531 -3.492188 5.300781 -4.109375 5.90625 Z M -4.109375 5.90625 "/></g></g></g><g fill="#efefed" fill-opacity="1"><g transform="translate(203.947061, 140.12357)"><g><path d="M -0.109375 13.34375 C -1.460938 14.0625 -2.691406 14.304688 -3.796875 14.078125 C -4.898438 13.847656 -5.75 13.164062 -6.34375 12.03125 C -6.945312 10.90625 -7.035156 9.816406 -6.609375 8.765625 C -6.179688 7.710938 -5.289062 6.828125 -3.9375 6.109375 L -1.359375 4.75 L -3.03125 1.609375 L -1.5625 0.828125 L 3.9375 11.203125 Z M -3.21875 7.390625 C -4.15625 7.890625 -4.765625 8.46875 -5.046875 9.125 C -5.335938 9.78125 -5.28125 10.488281 -4.875 11.25 C -4.476562 12 -3.921875 12.441406 -3.203125 12.578125 C -2.492188 12.722656 -1.671875 12.546875 -0.734375 12.046875 L 1.796875 10.703125 L -0.6875 6.046875 Z M -3.21875 7.390625 "/></g></g></g><g fill="#efefed" fill-opacity="1"><g transform="translate(187.59574, 147.832601)"><g><path d="M -9.71875 3.703125 L -10.046875 2.265625 L -1.71875 0.390625 L 0.859375 11.859375 L -7.234375 13.6875 L -7.546875 12.265625 L -1.09375 10.796875 L -1.890625 7.28125 L -7.640625 8.59375 L -7.953125 7.1875 L -2.203125 5.875 L -3.03125 2.1875 Z M -9.71875 3.703125 "/></g></g></g><g fill="#efefed" fill-opacity="1"><g transform="translate(170.656979, 150.900384)"><g><path d="M -9.609375 -0.421875 L -7.25 3.296875 C -6.9375 3.285156 -6.6875 3.285156 -6.5 3.296875 L -3.59375 3.421875 L -3.4375 -0.15625 L -1.765625 -0.078125 L -2.296875 11.65625 L -6.875 11.453125 C -8.394531 11.378906 -9.570312 10.960938 -10.40625 10.203125 C -11.238281 9.441406 -11.628906 8.425781 -11.578125 7.15625 C -11.535156 6.25 -11.273438 5.488281 -10.796875 4.875 C -10.328125 4.257812 -9.671875 3.820312 -8.828125 3.5625 L -11.4375 -0.515625 Z M -6.515625 4.71875 C -7.566406 4.664062 -8.382812 4.859375 -8.96875 5.296875 C -9.550781 5.734375 -9.863281 6.378906 -9.90625 7.234375 C -9.945312 8.078125 -9.691406 8.734375 -9.140625 9.203125 C -8.597656 9.679688 -7.800781 9.945312 -6.75 10 L -3.890625 10.125 L -3.65625 4.84375 Z M -6.515625 4.71875 "/></g></g></g></svg>